<svg width="318" height="318" viewBox="0 0 318 318" fill="none" xmlns="http://www.w3.org/2000/svg">
<path d="M212 172.25C197.292 172.25 185.5 184.042 185.5 198.75V238.5H172.25C159 238.5 145.75 237.44 136.475 228.297L86.5225 178.478C74.2 166.023 57.3725 159 39.75 159H26.5V185.5H39.75C50.35 185.5 60.42 189.74 67.84 197.16L117.793 247.112C155.29 284.875 172.25 291.5 212 291.5H238.5C267.783 291.5 291.5 267.783 291.5 238.5V198.75C291.5 184.042 279.708 172.25 265 172.25H212ZM185.5 95.4H165.625C158.947 94.8977 152.706 91.8856 148.159 86.9692C143.611 82.0529 141.094 75.5971 141.112 68.9C141.377 55.915 152.375 45.4475 165.095 45.7125H165.625V26.5C153.853 26.5 142.563 31.1765 134.238 39.5008C125.914 47.8251 121.237 59.1152 121.237 70.8875C121.237 82.6598 125.914 93.9499 134.238 102.274C142.563 110.598 153.853 115.275 165.625 115.275H185.5C199.678 114.745 211.47 125.875 212 139.92V159H231.875V137.27C231.637 131.515 230.264 125.863 227.835 120.64C225.406 115.417 221.969 110.725 217.721 106.834C213.473 102.944 208.498 99.9306 203.083 97.9684C197.667 96.0061 191.917 95.1332 186.163 95.4H185.5ZM265 129.32V159H245.125V128.525C245.125 99.375 221.408 75.525 192.125 75.525V55.65C195.73 55.6217 199.284 54.8051 202.54 53.2574C205.796 51.7098 208.673 49.4686 210.971 46.6911C213.269 43.9135 214.931 40.6669 215.841 37.179C216.752 33.691 216.888 30.0461 216.24 26.5H235.718C237.043 39.75 232.935 53 222.865 62.6725H223.263C248.835 74.995 265 100.965 265 129.32Z" fill="black"/>
</svg>
