<svg width="175" height="204" viewBox="0 0 175 204" fill="none" xmlns="http://www.w3.org/2000/svg">
<g clip-path="url(#clip0_6625_1178)">
<path d="M126.351 167.816C125.918 167.818 125.494 167.696 125.129 167.465C124.763 167.234 124.471 166.903 124.286 166.512C123.743 165.371 124.177 163.958 125.319 163.414C138.796 156.676 150.046 146.405 157.871 133.742C165.859 120.808 170.045 105.646 170.045 89.8857C170.045 61.0835 155.425 34.7805 130.916 19.5637C129.829 18.9121 129.504 17.4446 130.155 16.3577C130.808 15.2708 132.275 14.9454 133.362 15.597C145.752 23.3135 156.078 34.0743 163.306 46.7359C170.751 59.8336 174.664 74.7242 174.664 89.8318C174.664 106.462 170.208 122.438 161.784 136.134C153.523 149.557 141.622 160.425 127.384 167.49C127.058 167.762 126.732 167.816 126.351 167.816ZM49.0187 166.947C48.6925 166.947 48.3125 166.892 47.9864 166.675C17.499 151.296 0 123.308 0 89.8864C0 54.4525 21.1403 22.7711 53.8553 9.18358C55.0513 8.69439 56.4097 9.23816 56.8983 10.4335C57.3881 11.6295 56.8444 12.9879 55.649 13.4764C24.6724 26.3578 4.67358 56.356 4.67358 89.8871C4.67358 121.461 21.2487 147.981 50.1062 162.6C50.648 162.88 51.059 163.36 51.2518 163.939C51.4446 164.517 51.4039 165.148 51.1385 165.697C50.6493 166.513 49.834 166.947 49.0187 166.947" fill="#FFC700"/>
<path d="M87.6041 145.589C89.1228 147.388 89.8474 149.981 90.0815 152.265C93.4109 151.742 97.0645 150.568 100.429 148.198C101.407 147.491 102.766 147.763 103.472 148.741C104.178 149.72 103.907 151.078 102.929 151.784C96.8967 155.969 90.3202 157.002 85.3212 157.002C80.9738 157.002 77.9301 156.241 77.6586 156.132C76.5172 155.806 75.811 154.666 76.1371 153.469C76.4633 152.328 77.604 151.622 78.8 151.948C78.8792 151.974 81.7427 152.683 85.764 152.626C85.605 151.03 85.1193 149.35 84.2889 148.361C83.1475 147.003 80.9192 146.241 78.6909 146.459C77.441 146.568 75.1587 147.111 73.9088 149.339C73.202 150.644 73.2566 153.904 73.2566 155.479V159.524L73.2559 162.354V162.684L73.2552 163.641C73.2518 168.515 73.2402 171.439 73.202 172.545C73.1474 174.175 73.1474 175.914 73.202 177.761C73.2566 185.587 73.3657 194.445 68.2569 199.553C65.757 202.054 62.2249 203.357 57.7683 203.357C51.464 203.357 47.0088 201.347 44.5628 197.434C42.6607 194.391 42.3891 191.021 42.3891 188.087V173.848C42.3907 173.272 42.6203 172.72 43.0276 172.313C43.4349 171.906 43.9868 171.676 44.5628 171.675H62.3327C62.9087 171.676 63.4606 171.906 63.8679 172.313C64.2752 172.72 64.5048 173.272 64.5064 173.848V185.37C64.5048 185.946 64.2752 186.498 63.8679 186.905C63.4606 187.312 62.9087 187.542 62.3327 187.544C61.7567 187.542 61.2047 187.312 60.7974 186.905C60.3901 186.498 60.1606 185.946 60.1589 185.37V176.023H46.7366V188.087C46.7366 193.793 48.095 199.064 57.7689 199.064C61.0834 199.064 63.4748 198.249 65.2139 196.51C69.0176 192.706 68.9637 184.772 68.8545 177.816C68.8545 175.914 68.7999 174.121 68.8545 172.381C68.8907 171.403 68.903 168.686 68.9071 164.262V163.648L68.9078 163.333V162.357L68.9084 162.021L68.9091 155.535C68.8545 152.491 68.9091 149.34 70.1045 147.22C71.7351 144.339 74.6696 142.492 78.2563 142.166C81.9515 141.839 85.5395 143.144 87.6041 145.589ZM140.698 107.711C141.023 108.2 148.36 119.993 150.806 136.948C150.969 137.927 150.425 138.85 149.556 139.231C140.97 142.981 131.079 160.425 128.036 166.784C127.71 167.599 126.948 168.034 126.133 168.034C125.807 168.034 125.481 167.979 125.21 167.816C124.123 167.273 123.688 166.023 124.177 164.936C124.611 163.958 135.155 142.437 146.349 136.079C144.719 126.08 141.296 118.091 139.067 113.689L114.34 166.621C113.96 167.382 113.199 167.871 112.384 167.871H78.4732C77.8971 167.869 77.345 167.64 76.9377 167.232C76.5304 166.825 76.3009 166.273 76.2995 165.697C76.3011 165.121 76.5307 164.569 76.938 164.161C77.3453 163.754 77.8972 163.524 78.4732 163.523H110.971L136.894 107.928C137.22 107.222 137.926 106.733 138.741 106.678C139.557 106.624 140.263 107.005 140.698 107.711ZM38.6919 107.385C39.3987 107.494 39.9964 107.983 40.2679 108.635L65.9187 164.773C66.4079 165.86 65.9187 167.164 64.8318 167.653C64.5603 167.816 64.2342 167.871 63.9626 167.871C63.1473 167.871 62.332 167.382 62.0059 166.621L37.7681 113.472C34.5075 117.602 28.5301 126.406 28.0948 136.405C39.2902 143.742 51.0827 163.74 51.5718 164.61C52.1695 165.643 51.8434 166.946 50.8111 167.599C49.7781 168.196 48.4743 167.871 47.8221 166.838C47.7129 166.621 35.3228 145.589 24.8342 139.503C24.502 139.309 24.2266 139.031 24.0358 138.697C23.845 138.363 23.7455 137.985 23.7473 137.6C23.7473 121.461 36.3012 108.526 36.7904 107.983C37.2789 107.494 37.9857 107.222 38.6919 107.385ZM96.7336 7.95915e-05C97.3126 -0.00408602 97.8787 0.171081 98.3541 0.501528C98.8296 0.831975 99.1911 1.3015 99.389 1.84563C102.358 2.20178 107.503 3.0976 111.869 5.21538C112.594 3.81263 114.237 2.88542 116.08 3.69528C125.645 7.93425 136.024 16.2491 143.035 28.6392L143.049 28.6617C143.089 28.7266 143.217 28.9374 143.415 29.2806L143.636 29.6667C145.96 33.772 154.157 49.5482 152.709 65.4854C152.528 67.651 150.783 68.6512 149.14 68.4588C149.821 69.5764 150.242 70.6939 150.426 71.7897C150.59 72.5504 151.404 76.6802 148.633 80.2669C146.284 83.3644 142.099 85.0381 136.246 85.2884C138.852 92.1712 138.416 98.9258 138.416 99.2335C138.361 100.32 137.437 101.19 136.297 101.19H136.133C134.938 101.081 134.014 100.049 134.123 98.8527C134.123 98.8289 134.143 98.4816 134.147 97.888V97.551C134.132 95.277 133.838 90.3823 131.786 85.7558C131.722 85.6168 131.674 85.471 131.643 85.3212H127.438C123.743 85.3212 119.287 85.3758 114.504 85.3758C110.035 85.3758 105.276 85.3574 100.52 85.3103C99.5166 88.4719 99.0158 92.3377 99.0158 97.1136V122.493C99.0704 126.623 99.0158 131.188 97.8205 133.688C96.1353 137.166 92.4946 139.286 88.0926 139.34C88.038 139.449 87.9835 139.449 87.8757 139.449C83.419 139.449 79.2347 137.274 77.4955 134.014C76.0286 131.297 76.0825 128.199 76.1371 124.287C76.1371 123.091 76.1917 121.895 76.1371 120.537C76.1337 119.963 76.3526 119.411 76.7477 118.996C77.1428 118.58 77.6835 118.334 78.2563 118.308C79.4516 118.254 80.43 119.232 80.4846 120.428V124.287C80.43 127.601 80.3754 130.21 81.2999 131.949C82.3322 133.851 85.0497 135.155 87.9841 135.101C89.2886 135.101 92.4947 134.721 93.9076 131.84C94.7769 130.047 94.723 124.667 94.6684 122.602V97.1682C94.6684 92.5083 95.131 88.5948 96.0268 85.2557C94.083 85.2298 92.1562 85.197 90.2663 85.1581C86.4661 85.2386 82.5041 85.2905 78.5565 85.3219L77.0766 85.3335C74.121 85.3539 71.1852 85.3628 68.3449 85.3649H65.5394C61.3734 85.3604 57.2074 85.3458 53.0415 85.3212H45.8128C40.1062 85.3212 35.7588 83.7997 33.042 80.7568C29.8353 77.224 29.9444 72.8765 29.9983 72.1151C29.9983 70.6298 30.4207 69.1827 31.2537 67.7854C29.415 69.2202 26.2765 68.4301 26.0309 65.4854C24.5824 49.5482 32.78 33.772 35.1038 29.6667L35.3248 29.2806C35.5227 28.9374 35.651 28.7266 35.6912 28.6617L35.7049 28.6399C42.7146 16.2491 53.0947 7.93425 62.6588 3.69596C64.3849 2.93727 65.9351 3.70142 66.7211 4.95339C72.2952 2.39554 78.9508 1.7583 80.7425 1.61229C80.9723 1.12671 81.3362 0.716949 81.7912 0.431306C82.2462 0.145663 82.7733 -0.00395752 83.3106 7.95915e-05H96.7336ZM117.711 94.886C120.082 94.886 122.004 96.7834 122.004 99.125C122.004 101.465 120.082 103.363 117.711 103.363C115.339 103.363 113.417 101.466 113.417 99.125C113.417 96.7834 115.339 94.886 117.711 94.886ZM73.2566 96.2983C73.8327 96.2999 74.3848 96.5296 74.7921 96.937C75.1994 97.3445 75.4288 97.8966 75.4303 98.4727C75.4287 99.0487 75.1991 99.6007 74.7918 100.008C74.3845 100.415 73.8326 100.645 73.2566 100.646H53.2584C52.6824 100.645 52.1305 100.415 51.7232 100.008C51.3159 99.6007 51.0863 99.0487 51.0847 98.4727C51.0863 97.8967 51.3159 97.3448 51.7232 96.9375C52.1305 96.5302 52.6824 96.3006 53.2584 96.299L73.2566 96.2983ZM36.1934 67.7683C34.6173 69.2898 33.8566 70.7574 33.8566 72.1704V72.3334C33.8566 72.3334 33.8491 72.4289 33.8477 72.5995V72.7251C33.8566 73.6741 34.0701 76.1671 35.9218 78.1485C37.9325 80.3222 41.2477 81.409 45.8128 81.409H53.0401C57.363 81.4568 62.6636 81.495 68.3442 81.4977H69.7722C76.2292 81.4943 83.1059 81.4452 89.5513 81.3149L90.2657 81.3006C97.4944 81.4534 105.31 81.5032 112.487 81.5073H114.552C119.322 81.5046 123.744 81.4841 127.437 81.4636H134.665C140.046 81.4636 143.796 80.2676 145.589 77.9308C147.382 75.594 146.675 72.7141 146.675 72.7141L146.621 72.4965C146.023 68.8552 140.915 64.9969 132.926 62.171C122.601 58.5842 107.873 56.6821 90.2118 56.6821H90.1572C69.7231 55.9759 45.1598 59.128 36.1927 67.769M100.011 10.355L100.151 10.4798C101.674 11.8532 103.425 13.7431 105.211 16.3051C112.887 27.2644 115.542 42.6361 116.359 54.4374C128.981 56.197 137.649 59.2317 143.097 62.7072C140.967 52.5714 137.586 40.6575 130.916 30.6519C123.428 19.4197 113.08 12.6167 100.011 10.3543M77.1114 10.5753L77.0486 10.5862C67.853 12.2462 60.1815 15.8193 54.1809 21.2495C49.3981 25.597 45.486 31.3035 42.6054 38.1508C39.774 44.9558 37.8963 53.0776 36.9719 62.3088C42.546 58.7152 51.0615 55.9909 61.3782 54.3807C62.229 42.6374 64.9076 27.4746 72.4406 16.2498C74.0767 13.8311 75.6841 11.9774 77.1114 10.5753ZM89.7765 9.51098C86.2525 9.51098 82.893 9.72999 79.7047 10.166C74.5713 14.4929 64.8039 26.2779 62.7536 54.1727C71.0207 52.9828 80.3788 52.4922 90.2657 52.8238C99.7152 52.8238 107.881 53.3396 114.88 54.2382C112.811 24.6002 102.081 13.4968 97.1744 9.93877C94.7191 9.64901 92.2488 9.50616 89.7765 9.51098ZM99.5146 3.31252L99.505 3.36642C99.3613 4.07086 98.9493 4.6918 98.3561 5.09803C103.268 5.72777 107.853 6.9197 112.105 8.66837C111.657 8.08682 111.434 7.36276 111.478 6.62974C107.413 4.61362 102.49 3.70278 99.5146 3.31252ZM80.4928 3.05189L80.3972 3.06076C78.1567 3.27022 72.167 4.02277 67.2266 6.30702C67.3236 6.91165 67.2395 7.53145 66.9851 8.08844C71.4153 6.52967 76.2563 5.48807 81.508 4.96362C81.2182 4.73024 80.9788 4.44047 80.8043 4.11186C80.6298 3.78326 80.5238 3.42266 80.4928 3.05189Z" fill="#150007"/>
</g>
<defs>
<clipPath id="clip0_6625_1178">
<rect width="174.662" height="204" fill="white"/>
</clipPath>
</defs>
</svg>
